<?xml version="1.0" standalone="no"?>
<!DOCTYPE svg PUBLIC "-//W3C//DTD SVG 20010904//EN"
 "http://www.w3.org/TR/2001/REC-SVG-20010904/DTD/svg10.dtd">
<svg version="1.0" xmlns="http://www.w3.org/2000/svg"
 width="182.000000pt" height="184.000000pt" viewBox="0 0 182.000000 184.000000"
 preserveAspectRatio="xMidYMid meet">

<g transform="translate(0.000000,184.000000) scale(0.100000,-0.100000)"
fill="#000000" stroke="none">
<path d="M780 1663 c-130 -43 -174 -79 -176 -146 -1 -23 -9 -67 -18 -97 -17
-58 -20 -204 -7 -295 5 -37 8 -8 12 112 5 181 12 200 80 236 37 20 38 20 302
-4 l148 -13 30 -37 c28 -36 39 -91 20 -103 -5 -3 -8 -17 -8 -31 0 -14 3 -28 8
-31 5 -3 9 -13 8 -22 0 -11 -2 -12 -6 -4 -13 34 -145 62 -196 43 -25 -10 -26
-13 -16 -32 7 -14 7 -19 0 -15 -11 7 -51 -27 -51 -43 0 -5 18 -9 40 -9 31 -1
40 3 40 16 1 15 2 16 13 1 15 -19 119 -36 115 -18 -5 21 21 20 43 -2 19 -19
21 -29 16 -82 -3 -33 -11 -63 -17 -67 -7 -5 -11 -25 -8 -51 3 -38 0 -44 -17
-44 -11 0 -29 -15 -42 -34 -19 -28 -23 -30 -23 -13 0 11 5 24 10 27 17 11 11
61 -10 80 -11 10 -23 15 -27 12 -3 -4 -1 -7 6 -7 7 0 9 -5 6 -10 -4 -6 -10 -8
-14 -5 -5 2 -16 -2 -26 -9 -27 -19 -58 14 -48 52 5 22 4 25 -8 15 -14 -11 -36
-14 -122 -13 -44 0 -48 -2 -42 -20 5 -15 1 -22 -16 -28 -19 -7 -20 -10 -6 -15
10 -4 17 -1 17 6 0 8 4 7 10 -3 8 -12 14 -13 42 -2 21 8 36 8 42 2 6 -6 24
-10 41 -11 l30 -1 -30 -13 c-27 -13 -28 -14 -7 -16 40 -3 43 -4 51 -17 6 -9
15 -10 39 -1 18 6 32 15 32 20 0 5 7 9 15 9 32 0 -7 -93 -59 -144 -61 -58 -77
-68 -90 -56 -10 7 -17 6 -26 -5 -14 -17 -50 -20 -50 -4 0 5 -4 7 -10 4 -17
-11 -66 35 -91 85 -13 27 -34 55 -46 61 -13 7 -23 16 -23 21 0 4 -9 8 -20 8
-11 0 -20 5 -20 12 0 6 -3 9 -6 6 -7 -8 29 -116 59 -171 47 -90 141 -154 257
-177 65 -13 66 -13 109 16 24 16 52 33 62 39 11 5 19 17 20 25 0 10 3 9 9 -5
8 -18 9 -18 9 5 1 20 3 22 11 10 5 -8 8 -31 5 -50 -2 -19 -2 -26 1 -16 4 11
12 26 20 34 8 7 14 28 14 45 0 24 3 28 10 17 5 -8 10 -10 10 -4 0 6 -10 24
-22 39 l-22 28 33 125 c18 69 40 132 48 141 15 15 15 16 0 19 -25 5 -22 42 3
42 22 0 26 20 9 37 -9 9 -5 11 15 9 31 -4 35 16 8 36 -16 11 -20 34 -26 172
-6 146 -9 164 -33 205 -27 48 -75 85 -173 133 -76 38 -136 36 -270 -9z m331
-443 l24 -21 -50 7 c-60 8 -72 14 -54 25 23 15 56 10 80 -11z"/>
<path d="M688 1261 c-39 -8 -68 -27 -68 -43 0 -6 7 -4 17 3 9 8 39 14 67 14
38 0 51 4 51 15 0 18 -17 20 -67 11z"/>
<path d="M691 1194 c-19 -8 -31 -17 -27 -21 10 -10 77 -14 96 -6 8 3 21 7 27
7 7 1 13 4 13 9 0 4 0 12 0 17 0 15 -70 11 -109 -6z"/>
<path d="M550 1136 c0 -9 5 -16 10 -16 6 0 10 4 10 9 0 6 -4 13 -10 16 -5 3
-10 -1 -10 -9z"/>
<path d="M697 998 c-27 -20 -34 -48 -21 -95 8 -31 24 -29 24 2 0 29 3 30 35 9
22 -14 26 -14 40 -1 22 23 19 27 -20 27 -25 0 -35 4 -35 16 0 8 -4 12 -10 9
-13 -8 0 28 14 37 6 4 8 9 6 12 -3 2 -17 -5 -33 -16z"/>
<path d="M592 990 c0 -14 2 -19 5 -12 2 6 2 18 0 25 -3 6 -5 1 -5 -13z"/>
<path d="M808 923 c6 -2 18 -2 25 0 6 3 1 5 -13 5 -14 0 -19 -2 -12 -5z"/>
<path d="M845 779 c-10 -15 1 -23 20 -15 9 3 13 10 10 16 -8 13 -22 13 -30 -1z"/>
<path d="M670 615 c0 -14 5 -25 10 -25 6 0 10 11 10 25 0 14 -4 25 -10 25 -5
0 -10 -11 -10 -25z"/>
<path d="M657 368 c-44 -41 -60 -68 -37 -68 6 0 10 4 10 8 0 4 20 16 45 27 32
12 42 21 33 27 -10 6 -8 8 5 8 10 0 17 8 17 20 0 31 -20 24 -73 -22z"/>
<path d="M1137 344 c-4 -20 -1 -24 12 -18 9 4 24 6 34 6 26 -1 21 17 -9 28
-33 13 -31 14 -37 -16z"/>
<path d="M1220 339 c0 -5 9 -9 20 -9 11 0 20 2 20 4 0 2 -9 6 -20 9 -11 3 -20
1 -20 -4z"/>
<path d="M1288 323 c7 -3 16 -2 19 1 4 3 -2 6 -13 5 -11 0 -14 -3 -6 -6z"/>
<path d="M1013 270 c-7 -10 -32 -28 -55 -39 l-43 -20 33 -1 c17 0 32 3 32 8 0
14 79 45 104 40 17 -4 26 -1 26 8 0 7 6 15 13 17 6 2 -1 2 -18 0 -40 -7 -48
-6 -65 1 -9 4 -20 -2 -27 -14z"/>
<path d="M898 193 c6 -2 18 -2 25 0 6 3 1 5 -13 5 -14 0 -19 -2 -12 -5z"/>
<path d="M855 140 c3 -5 14 -10 23 -10 15 0 15 2 2 10 -20 13 -33 13 -25 0z"/>
</g>
</svg>
