<?xml version="1.0" standalone="no"?>
<!DOCTYPE svg PUBLIC "-//W3C//DTD SVG 20010904//EN"
 "http://www.w3.org/TR/2001/REC-SVG-20010904/DTD/svg10.dtd">
<svg version="1.0" xmlns="http://www.w3.org/2000/svg"
 width="144.000000pt" height="144.000000pt" viewBox="0 0 144.000000 144.000000"
 preserveAspectRatio="xMidYMid meet">

<g transform="translate(0.000000,144.000000) scale(0.100000,-0.100000)"
fill="#000000" stroke="none">
<path d="M661 1374 c-36 -46 -23 -106 26 -125 56 -21 113 34 97 95 -14 57 -87
75 -123 30z m98 -25 c12 -22 12 -29 0 -55 -27 -56 -99 -33 -99 33 0 54 72 71
99 22z"/>
<path d="M902 1295 c-19 -38 -27 -67 -21 -70 5 -4 19 17 31 46 24 58 32 53 43
-33 3 -26 10 -50 15 -53 9 -6 50 67 64 113 13 41 -12 23 -31 -23 -10 -25 -21
-45 -25 -45 -3 0 -10 29 -13 65 -5 39 -12 65 -19 65 -6 0 -26 -29 -44 -65z"/>
<path d="M427 1333 c-32 -13 -38 -20 -33 -37 11 -43 47 -116 58 -116 6 0 7 7
3 18 -25 59 -4 74 56 40 48 -26 62 -18 20 12 -25 17 -29 25 -21 39 6 13 5 24
-6 39 -18 26 -26 26 -77 5z m61 -25 c2 -11 -8 -23 -27 -32 -29 -15 -31 -15
-41 5 -7 11 -10 22 -8 23 34 28 71 30 76 4z"/>
<path d="M1170 1213 c0 -3 7 -14 16 -24 14 -15 11 -20 -35 -59 -28 -24 -48
-47 -45 -52 3 -4 30 12 59 37 52 45 54 46 65 25 6 -11 15 -18 21 -15 5 4 -7
26 -27 51 -33 40 -54 55 -54 37z"/>
<path d="M241 1188 c-56 -20 -66 -75 -22 -119 43 -43 91 -38 116 12 20 37 19
43 -10 77 -29 34 -51 42 -84 30z m61 -37 c32 -29 33 -31 18 -58 -20 -36 -55
-41 -86 -12 -30 28 -31 63 -2 83 30 21 33 21 70 -13z"/>
<path d="M629 1060 c-21 -22 -44 -40 -51 -40 -27 0 -135 -58 -171 -92 -21 -20
-51 -41 -67 -48 -102 -42 -66 -189 47 -190 15 -1 39 -7 53 -15 29 -17 123 -20
151 -5 14 8 34 6 75 -7 53 -16 58 -16 104 0 43 15 51 16 83 2 47 -19 84 -19
122 1 17 9 53 17 82 18 43 1 58 7 83 31 49 47 40 119 -21 150 -16 9 -48 34
-69 55 -43 43 -112 82 -177 99 -27 7 -44 19 -48 31 -9 29 -56 50 -111 50 -42
0 -51 -4 -85 -40z m-117 -255 c-2 -14 -6 -25 -7 -25 -1 0 -5 11 -7 25 -3 16
-1 25 7 25 8 0 10 -9 7 -25z m243 15 c4 -6 1 -9 -6 -8 -6 2 -14 -3 -17 -11 -3
-10 0 -12 12 -8 9 4 16 3 16 -2 0 -4 -22 -8 -50 -8 -41 1 -50 4 -50 19 0 22
18 24 26 3 4 -8 10 -15 16 -15 5 0 6 5 2 12 -4 6 -3 8 3 5 6 -4 13 0 17 8 6
17 22 20 31 5z m195 -24 c0 15 30 14 30 -1 0 -8 -12 -12 -30 -11 -25 1 -30 5
-30 26 l1 25 14 -25 c8 -14 14 -20 15 -14z m-592 -4 c2 -6 -5 -9 -14 -8 -10 2
-20 8 -22 14 -2 6 5 9 14 8 10 -2 20 -8 22 -14z m50 0 c2 -6 -5 -9 -14 -8 -10
2 -20 8 -22 14 -2 6 5 9 14 8 10 -2 20 -8 22 -14z m50 0 c2 -6 -5 -9 -14 -8
-10 2 -20 8 -22 14 -2 6 5 9 14 8 10 -2 20 -8 22 -14z m83 9 c7 11 9 10 9 -3
0 -10 -7 -18 -15 -18 -8 0 -15 8 -14 18 0 12 2 13 6 3 5 -11 7 -11 14 0z m26
-13 c-3 -8 -6 -5 -6 6 -1 11 2 17 5 13 3 -3 4 -12 1 -19z m28 12 c-3 -5 -1
-10 4 -10 6 0 11 5 11 10 0 6 9 10 20 10 17 0 19 -2 8 -14 -10 -10 -39 -14
-56 -7 -5 2 8 21 14 21 3 0 2 -4 -1 -10z m196 1 c7 11 9 10 9 -3 0 -10 -7 -18
-15 -18 -8 0 -15 8 -14 18 0 12 2 13 6 3 5 -11 7 -11 14 0z m40 0 c7 11 9 11
9 -2 0 -9 -7 -19 -15 -23 -11 -4 -15 1 -14 17 0 13 3 16 6 8 5 -11 7 -11 14 0z
m33 -6 c3 -8 1 -15 -4 -15 -6 0 -10 7 -10 15 0 8 2 15 4 15 2 0 6 -7 10 -15z
m46 0 c0 -8 -7 -15 -15 -15 -26 0 -18 20 13 29 1 1 2 -6 2 -14z m114 0 c3 -8
1 -15 -4 -15 -6 0 -10 7 -10 15 0 8 2 15 4 15 2 0 6 -7 10 -15z m37 -5 c6 0 8
4 5 8 -3 5 1 9 9 9 8 0 15 -6 15 -12 0 -16 -43 -13 -46 3 -1 7 0 8 3 2 2 -5 9
-10 14 -10z m46 -2 c-3 -8 -6 -5 -6 6 -1 11 2 17 5 13 3 -3 4 -12 1 -19z m20
0 c-3 -8 -6 -5 -6 6 -1 11 2 17 5 13 3 -3 4 -12 1 -19z"/>
<path d="M1273 983 c-26 -5 -63 -48 -63 -73 0 -10 9 -29 21 -44 26 -33 75 -35
113 -5 61 48 9 137 -71 122z m55 -29 c46 -32 13 -94 -50 -94 -21 0 -32 7 -40
26 -14 30 -4 53 33 71 30 16 30 16 57 -3z"/>
<path d="M75 930 c-18 -53 -15 -94 3 -48 l11 27 57 -19 c64 -22 74 -24 74 -12
0 5 -27 17 -61 27 -58 18 -61 20 -55 47 9 47 -11 31 -29 -22z"/>
<path d="M112 680 c-1 -35 2 -50 10 -50 8 0 13 14 12 38 -2 54 -3 62 -12 62
-4 0 -9 -22 -10 -50z"/>
<path d="M1313 708 c-1 -13 -4 -35 -8 -49 -5 -18 -2 -28 7 -31 8 -3 14 3 15
16 7 69 7 79 -2 83 -5 1 -11 -7 -12 -19z"/>
<path d="M410 677 c0 -1 22 -63 49 -137 l48 -135 211 -3 210 -2 43 127 c23 71
44 133 46 140 3 7 -11 4 -33 -8 -47 -23 -81 -24 -134 -3 -29 12 -44 13 -53 6
-25 -21 -90 -24 -139 -7 -35 11 -53 13 -67 5 -28 -15 -122 -12 -153 4 -16 8
-28 14 -28 13z m317 -179 c-2 -18 -4 -4 -4 32 0 36 2 50 4 33 2 -18 2 -48 0
-65z m60 15 c-2 -16 -4 -3 -4 27 0 30 2 43 4 28 2 -16 2 -40 0 -55z m-120 10
c-3 -10 -5 -4 -5 12 0 17 2 24 5 18 2 -7 2 -21 0 -30z m230 15 c-3 -8 -6 -5
-6 6 -1 11 2 17 5 13 3 -3 4 -12 1 -19z m-60 -35 c-3 -10 -5 -2 -5 17 0 19 2
27 5 18 2 -10 2 -26 0 -35z m-280 15 c-3 -8 -6 -5 -6 6 -1 11 2 17 5 13 3 -3
4 -12 1 -19z m60 0 c-3 -8 -6 -5 -6 6 -1 11 2 17 5 13 3 -3 4 -12 1 -19z m270
-50 c-3 -7 -5 -2 -5 12 0 14 2 19 5 13 2 -7 2 -19 0 -25z m-320 0 c-3 -8 -6
-5 -6 6 -1 11 2 17 5 13 3 -3 4 -12 1 -19z m60 -20 c-3 -7 -5 -2 -5 12 0 14 2
19 5 13 2 -7 2 -19 0 -25z m50 -10 c-3 -7 -5 -2 -5 12 0 14 2 19 5 13 2 -7 2
-19 0 -25z"/>
<path d="M1205 527 c-9 -23 -19 -47 -22 -53 -2 -6 4 -14 14 -16 10 -3 42 -15
71 -27 l53 -21 19 46 c22 50 24 64 12 64 -5 0 -14 -18 -21 -40 -12 -40 -24
-47 -50 -31 -12 8 -12 14 -2 40 7 16 11 36 8 43 -2 7 -12 -6 -21 -28 -14 -33
-21 -41 -37 -37 -23 6 -23 13 -5 58 8 19 11 37 6 40 -4 3 -16 -14 -25 -38z"/>
<path d="M115 535 c-30 -29 -32 -68 -5 -95 21 -21 60 -27 60 -10 0 6 -8 10
-18 10 -44 0 -57 58 -20 84 53 37 105 8 93 -51 -6 -27 -6 -27 9 -9 21 26 20
38 -5 70 -28 35 -80 36 -114 1z"/>
<path d="M258 345 c-45 -50 -48 -76 -12 -104 38 -30 52 -27 101 25 57 59 48
70 -12 15 -50 -46 -57 -48 -79 -25 -24 23 -20 37 25 88 22 25 35 46 27 45 -7
0 -30 -20 -50 -44z"/>
<path d="M1117 384 c-4 -4 -4 -29 -1 -56 7 -53 1 -58 -33 -26 -13 12 -26 18
-30 14 -9 -9 87 -106 106 -106 10 0 8 7 -9 24 -34 37 -22 55 34 46 25 -4 48
-5 51 -2 11 12 -9 22 -43 22 -50 0 -60 9 -64 54 -2 21 -6 34 -11 30z"/>
<path d="M461 242 c-24 -45 -48 -123 -40 -128 5 -3 14 8 20 25 9 26 14 29 29
21 27 -14 66 -12 80 4 22 28 8 58 -37 77 -41 17 -43 17 -52 1z m73 -32 c15
-15 -2 -40 -26 -40 -35 0 -48 13 -41 39 5 18 10 21 32 16 14 -4 30 -10 35 -15z"/>
<path d="M909 236 c-8 -8 3 -166 12 -166 5 0 9 13 9 28 0 38 43 61 70 37 9 -8
23 -15 30 -15 8 0 -12 27 -45 60 -57 58 -67 65 -76 56z m55 -77 c-6 -11 -34
-12 -34 -1 0 4 -3 18 -7 32 l-6 25 26 -24 c15 -13 24 -28 21 -32z"/>
<path d="M671 174 c-12 -15 -21 -40 -21 -56 0 -33 39 -78 67 -78 26 0 63 28
63 47 0 13 -5 12 -24 -6 -30 -28 -56 -24 -75 11 -22 39 -5 82 34 86 18 3 33
-2 41 -13 7 -9 15 -12 18 -6 10 16 -23 41 -54 41 -19 0 -36 -9 -49 -26z"/>
</g>
</svg>
